<svg width="105" height="46" viewBox="0 0 105 46" fill="none" xmlns="http://www.w3.org/2000/svg">
<path d="M39.5919 31.6602C38.512 31.6602 37.972 32.4368 37.972 33.9899C37.972 35.5389 38.5079 36.3134 39.5797 36.3134C40.1298 36.3134 40.5363 36.1253 40.7991 35.7492C41.062 35.3731 41.1935 34.7886 41.1935 33.9959C41.1935 33.2032 41.06 32.6168 40.7931 32.2366C40.5302 31.8523 40.1298 31.6602 39.5919 31.6602ZM35.7031 33.9959C35.7031 32.6612 36.0347 31.6441 36.698 30.9444C37.3613 30.2447 38.3259 29.8948 39.5919 29.8948C40.8618 29.8948 41.8244 30.2426 42.4796 30.9383C43.1348 31.6299 43.4624 32.6491 43.4624 33.9959C43.4624 35.3427 43.1328 36.366 42.4736 37.0657C41.8184 37.7613 40.8578 38.1092 39.5919 38.1092C38.33 38.1092 37.3654 37.7573 36.698 37.0536C36.0347 36.3498 35.7031 35.3306 35.7031 33.9959ZM48.5644 31.8119V33.4135H47.248V38H45.1125V33.4135H44.2935V32.364L45.161 31.8422V31.7391C45.161 30.9221 45.3268 30.3357 45.6585 29.9797C45.9901 29.6238 46.524 29.4459 47.2601 29.4459C47.794 29.4459 48.3561 29.5429 48.9466 29.7371L48.4916 31.1203C48.2287 31.0475 47.9719 31.0111 47.7212 31.0111C47.5553 31.0111 47.434 31.0616 47.3572 31.1628C47.2844 31.2639 47.248 31.4257 47.248 31.6481V31.8119H48.5644ZM53.1816 31.8119V33.4135H51.8651V38H49.7296V33.4135H48.9106V32.364L49.7782 31.8422V31.7391C49.7782 30.9221 49.944 30.3357 50.2757 29.9797C50.6073 29.6238 51.1412 29.4459 51.8773 29.4459C52.4111 29.4459 52.9733 29.5429 53.5638 29.7371L53.1088 31.1203C52.8459 31.0475 52.5891 31.0111 52.3383 31.0111C52.1725 31.0111 52.0512 31.0616 51.9743 31.1628C51.9015 31.2639 51.8651 31.4257 51.8651 31.6481V31.8119H53.1816ZM56.1669 31.8119V38H54.0314V31.8119H56.1669ZM56.2518 30.277C56.2518 30.8999 55.8716 31.2113 55.1112 31.2113C54.3549 31.2113 53.9768 30.8999 53.9768 30.277C53.9768 29.9494 54.0657 29.7088 54.2437 29.5551C54.4257 29.4014 54.7129 29.3245 55.1052 29.3245C55.5015 29.3245 55.7907 29.4034 55.9727 29.5611C56.1588 29.7189 56.2518 29.9575 56.2518 30.277ZM60.4731 38.1092C59.466 38.1092 58.6996 37.8382 58.1738 37.2962C57.648 36.7502 57.3851 35.9636 57.3851 34.9363C57.3851 33.909 57.6662 33.1142 58.2284 32.552C58.7946 31.9858 59.5995 31.7027 60.6429 31.7027C61.3548 31.7027 62.0302 31.8604 62.6692 32.1759L62.0383 33.7533C61.4721 33.5065 61.011 33.3832 60.6551 33.3832C60.2992 33.3832 60.0262 33.5187 59.8361 33.7897C59.65 34.0566 59.557 34.4348 59.557 34.9241C59.557 35.915 59.923 36.4105 60.6551 36.4105C61.2779 36.4105 61.8785 36.2285 62.4569 35.8645V37.5632C61.9028 37.9272 61.2415 38.1092 60.4731 38.1092ZM67.4546 34.1415C67.4506 33.8422 67.3677 33.6036 67.2059 33.4257C67.0441 33.2477 66.8277 33.1587 66.5568 33.1587C66.2898 33.1587 66.0734 33.2416 65.9076 33.4075C65.7458 33.5692 65.6508 33.8139 65.6225 34.1415H67.4546ZM66.6781 38.1092C65.6468 38.1092 64.8459 37.8362 64.2757 37.2902C63.7054 36.7361 63.4203 35.9454 63.4203 34.9181C63.4203 33.8908 63.6832 33.098 64.2089 32.5399C64.7347 31.9818 65.4769 31.7027 66.4354 31.7027C67.394 31.7027 68.126 31.9474 68.6316 32.4368C69.1412 32.9262 69.396 33.6259 69.396 34.5359V35.4823H65.58C65.5922 35.8301 65.7175 36.1031 65.9562 36.3013C66.1948 36.4954 66.5082 36.5925 66.8965 36.5925C67.2888 36.5925 67.6447 36.5581 67.9642 36.4894C68.2838 36.4166 68.6255 36.2932 68.9895 36.1193V37.6542C68.666 37.824 68.3242 37.9413 67.9642 38.006C67.6083 38.0748 67.1796 38.1092 66.6781 38.1092Z" fill="#8FB5FF" fill-opacity="0.5"/>
<mask id="mask0_17_217" style="mask-type:alpha" maskUnits="userSpaceOnUse" x="41" y="0" width="24" height="24">
<rect x="41" width="24" height="24" fill="#D9D9D9"/>
</mask>
<g mask="url(#mask0_17_217)">
<path d="M44 21V7H48V3H58V11H62V21H54V17H52V21H44ZM46 19H48V17H46V19ZM46 15H48V13H46V15ZM46 11H48V9H46V11ZM50 15H52V13H50V15ZM50 11H52V9H50V11ZM50 7H52V5H50V7ZM54 15H56V13H54V15ZM54 11H56V9H54V11ZM54 7H56V5H54V7ZM58 19H60V17H58V19ZM58 15H60V13H58V15Z" fill="#8FB5FF" fill-opacity="0.5"/>
</g>
</svg>
